<svg width="16" height="16" viewBox="0 0 16 16" fill="none" xmlns="http://www.w3.org/2000/svg">
<path fill-rule="evenodd" clip-rule="evenodd" d="M0 8.04001C0 12 2.88 15.28 6.68 15.96L6.72503 15.9232C6.72359 15.9229 6.72214 15.9226 6.7207 15.9224V10.2824H4.7207V8.04238H6.7207V6.28238C6.7207 4.28238 8.0007 3.16238 9.8407 3.16238C10.4007 3.16238 11.0407 3.24238 11.6007 3.32238V5.36238H10.5607C9.6007 5.36238 9.3607 5.84238 9.3607 6.48238V8.04238H11.4807L11.1207 10.2824H9.3607V15.9224C9.33694 15.9267 9.31318 15.9309 9.28943 15.935L9.32 15.96C13.12 15.28 16 12 16 8.04001C16 3.64001 12.4 0.0400085 8 0.0400085C3.6 0.0400085 0 3.64001 0 8.04001Z" fill="#000055"/>
</svg>
