<svg width="8" height="8" viewBox="0 0 8 8" fill="none" xmlns="http://www.w3.org/2000/svg">
<g clip-path="url(#clip0_38_5440)">
<path fill-rule="evenodd" clip-rule="evenodd" d="M4.56764 0.33424C4.43524 0.334002 4.30694 0.376533 4.20499 0.45445C4.08911 0.543064 4.01622 0.670566 4.0024 0.808822C3.98858 0.947077 4.03497 1.08472 4.13133 1.19139L6.66985 3.99279L4.22199 6.79942C4.12693 6.9074 4.08245 7.04587 4.0984 7.18419C4.11435 7.3225 4.18942 7.44925 4.30699 7.53636C4.42551 7.63255 4.58216 7.67877 4.7392 7.66389C4.89624 7.64901 5.03943 7.57437 5.13427 7.45796L7.87111 4.32206C8.04298 4.1292 8.04298 3.85115 7.87111 3.6583L5.03794 0.522394C4.92266 0.394112 4.74796 0.324223 4.56764 0.33424Z" fill="#8080AA"/>
</g>
<defs>
<clipPath id="clip0_38_5440">
<rect width="8" height="8" fill="white"/>
</clipPath>
</defs>
</svg>
