<svg width="16" height="16" viewBox="0 0 16 16" fill="none" xmlns="http://www.w3.org/2000/svg">
<path d="M10.8 8.92H9.064C7.64 8.92 6.48 7.768 6.48 6.336V4.6C6.48 4.272 6.216 4 5.88 4H3.344C1.496 4 0 5.2 0 7.344V12.656C0 14.8 1.496 16 3.344 16H8.056C9.904 16 11.4 14.8 11.4 12.656V9.52C11.4 9.184 11.128 8.92 10.8 8.92Z" fill="#000055"/>
<path d="M12.6558 0H11.0798H10.2078H7.94381C6.13579 0 4.67179 1.152 4.60779 3.208C4.65579 3.208 4.69579 3.2 4.74379 3.2H7.00781H7.87981H9.45581C11.3038 3.2 12.7998 4.4 12.7998 6.544V8.12V10.288V11.864C12.7998 11.912 12.7918 11.952 12.7918 11.992C14.5758 11.936 15.9998 10.752 15.9998 8.664V7.088V4.92V3.344C15.9998 1.2 14.5038 0 12.6558 0Z" fill="#000055"/>
<path d="M7.9845 4.12135C7.7365 3.87335 7.3125 4.04135 7.3125 4.38535V6.48135C7.3125 7.36135 8.0565 8.08135 8.9685 8.08135C9.5365 8.08935 10.3285 8.08935 11.0085 8.08935C11.3525 8.08935 11.5285 7.68935 11.2885 7.44935C10.4165 6.57735 8.8645 5.01735 7.9845 4.12135Z" fill="#000055"/>
</svg>
