<svg width="16" height="16" viewBox="0 0 16 16" fill="none" xmlns="http://www.w3.org/2000/svg">
<path fill-rule="evenodd" clip-rule="evenodd" d="M16 8C16 12.4183 12.4183 16 8 16C3.58172 16 0 12.4183 0 8C0 3.58172 3.58172 0 8 0C12.4183 0 16 3.58172 16 8ZM3.5 12.5V5.5H5.5V12.5H3.5ZM10.2495 5.5C8.854 5.5 8.614 6.009 8.5 6.5V5.5H6.5V12.5H8.5V8.5C8.5 7.8515 8.8515 7.5 9.5 7.5C10.133 7.5 10.5 7.844 10.5 8.5V12.5H12.5V9C12.5 7 12.2395 5.5 10.2495 5.5ZM5.5 4C5.5 4.55228 5.05228 5 4.5 5C3.94772 5 3.5 4.55228 3.5 4C3.5 3.44772 3.94772 3 4.5 3C5.05228 3 5.5 3.44772 5.5 4Z" fill="#000055"/>
</svg>
